<mxfile host="Electron" modified="2023-10-12T10:18:22.041Z" agent="Mozilla/5.0 (Windows NT 10.0; Win64; x64) AppleWebKit/537.36 (KHTML, like Gecko) draw.io/22.0.2 Chrome/114.0.5735.289 Electron/25.8.4 Safari/537.36" etag="FUwHsMI2hYjK9S-UFtR9" version="22.0.2" type="device">
  <diagram name="Page-1" id="54c02804-9d69-ba3f-8aca-1021b27b8050">
    <mxGraphModel dx="576" dy="337" grid="1" gridSize="10" guides="1" tooltips="1" connect="1" arrows="1" fold="1" page="1" pageScale="1" pageWidth="1100" pageHeight="850" background="none" math="0" shadow="0">
      <root>
        <mxCell id="0" />
        <mxCell id="1" parent="0" />
        <mxCell id="nW0oDxiYOjyPanPVNNXd-8" value="" style="verticalLabelPosition=bottom;verticalAlign=top;html=1;shape=mxgraph.infographic.shadedCube;isoAngle=5.43;fillColor=#ae3232;strokeColor=none;fontFamily=Helvetica;fontSize=20;align=center;strokeWidth=2;" vertex="1" parent="1">
          <mxGeometry x="520" y="470" width="380" height="130" as="geometry" />
        </mxCell>
        <mxCell id="nW0oDxiYOjyPanPVNNXd-9" value="" style="verticalLabelPosition=bottom;verticalAlign=top;html=1;shape=mxgraph.infographic.shadedCube;isoAngle=5.43;fillColor=#f2931e;strokeColor=none;fontFamily=Helvetica;fontSize=20;align=center;strokeWidth=2;" vertex="1" parent="1">
          <mxGeometry x="520" y="400" width="380" height="130" as="geometry" />
        </mxCell>
        <mxCell id="nW0oDxiYOjyPanPVNNXd-17" value="" style="verticalLabelPosition=bottom;verticalAlign=top;html=1;shape=mxgraph.infographic.shadedCube;isoAngle=5.43;fillColor=#f2931e;strokeColor=none;fontFamily=Helvetica;fontSize=20;align=center;strokeWidth=2;" vertex="1" parent="1">
          <mxGeometry x="720" y="362.5" width="180" height="80" as="geometry" />
        </mxCell>
        <mxCell id="7c3a617817c5cf35-4" value="" style="verticalLabelPosition=bottom;verticalAlign=top;html=1;shape=mxgraph.infographic.shadedCube;isoAngle=5.43;fillColor=#ae3232;strokeColor=none;fontFamily=Helvetica;fontSize=20;align=center;strokeWidth=2;" parent="1" vertex="1">
          <mxGeometry x="80" y="470" width="380" height="130" as="geometry" />
        </mxCell>
        <mxCell id="nW0oDxiYOjyPanPVNNXd-1" value="" style="verticalLabelPosition=bottom;verticalAlign=top;html=1;shape=mxgraph.infographic.shadedCube;isoAngle=5.43;fillColor=#f2931e;strokeColor=none;fontFamily=Helvetica;fontSize=20;align=center;strokeWidth=2;" vertex="1" parent="1">
          <mxGeometry x="80" y="400" width="380" height="130" as="geometry" />
        </mxCell>
        <mxCell id="nW0oDxiYOjyPanPVNNXd-2" value="" style="verticalLabelPosition=bottom;verticalAlign=top;html=1;shape=mxgraph.infographic.shadedCube;isoAngle=5.43;fillColor=#12aab5;strokeColor=none;fontFamily=Helvetica;fontSize=20;align=center;strokeWidth=2;" vertex="1" parent="1">
          <mxGeometry x="80" y="330" width="380" height="130" as="geometry" />
        </mxCell>
        <mxCell id="nW0oDxiYOjyPanPVNNXd-5" value="Application" style="text;html=1;strokeColor=none;fillColor=none;align=center;verticalAlign=middle;whiteSpace=wrap;rounded=0;fontSize=17;fontColor=#FFFFFF;fontStyle=1;rotation=10;" vertex="1" parent="1">
          <mxGeometry x="110" y="395" width="120" height="30" as="geometry" />
        </mxCell>
        <mxCell id="nW0oDxiYOjyPanPVNNXd-6" value="Operating system" style="text;html=1;strokeColor=none;fillColor=none;align=center;verticalAlign=middle;whiteSpace=wrap;rounded=0;fontSize=17;fontColor=#FFFFFF;fontStyle=1;rotation=10;" vertex="1" parent="1">
          <mxGeometry x="80" y="465" width="180" height="30" as="geometry" />
        </mxCell>
        <mxCell id="nW0oDxiYOjyPanPVNNXd-7" value="Hardware" style="text;html=1;strokeColor=none;fillColor=none;align=center;verticalAlign=middle;whiteSpace=wrap;rounded=0;fontSize=17;fontColor=#FFFFFF;fontStyle=1;rotation=10;" vertex="1" parent="1">
          <mxGeometry x="110" y="533" width="120" height="30" as="geometry" />
        </mxCell>
        <mxCell id="nW0oDxiYOjyPanPVNNXd-10" value="Hardware" style="text;html=1;strokeColor=none;fillColor=none;align=center;verticalAlign=middle;whiteSpace=wrap;rounded=0;fontSize=17;fontColor=#FFFFFF;fontStyle=1;rotation=10;" vertex="1" parent="1">
          <mxGeometry x="555" y="533" width="120" height="30" as="geometry" />
        </mxCell>
        <mxCell id="nW0oDxiYOjyPanPVNNXd-11" value="Virtualisation" style="text;html=1;strokeColor=none;fillColor=none;align=center;verticalAlign=middle;whiteSpace=wrap;rounded=0;fontSize=17;fontColor=#FFFFFF;fontStyle=1;rotation=10;" vertex="1" parent="1">
          <mxGeometry x="525" y="465" width="180" height="30" as="geometry" />
        </mxCell>
        <mxCell id="nW0oDxiYOjyPanPVNNXd-14" value="" style="verticalLabelPosition=bottom;verticalAlign=top;html=1;shape=mxgraph.infographic.shadedCube;isoAngle=5.43;fillColor=#f2931e;strokeColor=none;fontFamily=Helvetica;fontSize=20;align=center;strokeWidth=2;" vertex="1" parent="1">
          <mxGeometry x="520" y="362.5" width="180" height="80" as="geometry" />
        </mxCell>
        <mxCell id="nW0oDxiYOjyPanPVNNXd-13" value="" style="verticalLabelPosition=bottom;verticalAlign=top;html=1;shape=mxgraph.infographic.shadedCube;isoAngle=5.43;fillColor=#f2931e;strokeColor=none;fontFamily=Helvetica;fontSize=20;align=center;strokeWidth=2;" vertex="1" parent="1">
          <mxGeometry x="620" y="380" width="180" height="80" as="geometry" />
        </mxCell>
        <mxCell id="nW0oDxiYOjyPanPVNNXd-20" value="" style="verticalLabelPosition=bottom;verticalAlign=top;html=1;shape=mxgraph.infographic.shadedCube;isoAngle=5.43;fillColor=#12aab5;strokeColor=none;fontFamily=Helvetica;fontSize=20;align=center;strokeWidth=2;" vertex="1" parent="1">
          <mxGeometry x="622.5" y="290" width="175" height="80" as="geometry" />
        </mxCell>
        <mxCell id="nW0oDxiYOjyPanPVNNXd-15" value="" style="verticalLabelPosition=bottom;verticalAlign=top;html=1;shape=mxgraph.infographic.shadedCube;isoAngle=5.43;fillColor=#12aab5;strokeColor=none;fontFamily=Helvetica;fontSize=20;align=center;strokeWidth=2;" vertex="1" parent="1">
          <mxGeometry x="522.5" y="307.5" width="175" height="80" as="geometry" />
        </mxCell>
        <mxCell id="nW0oDxiYOjyPanPVNNXd-18" value="" style="verticalLabelPosition=bottom;verticalAlign=top;html=1;shape=mxgraph.infographic.shadedCube;isoAngle=5.43;fillColor=#12aab5;strokeColor=none;fontFamily=Helvetica;fontSize=20;align=center;strokeWidth=2;" vertex="1" parent="1">
          <mxGeometry x="722.5" y="307.5" width="175" height="80" as="geometry" />
        </mxCell>
        <mxCell id="nW0oDxiYOjyPanPVNNXd-16" value="" style="verticalLabelPosition=bottom;verticalAlign=top;html=1;shape=mxgraph.infographic.shadedCube;isoAngle=5.43;fillColor=#12aab5;strokeColor=none;fontFamily=Helvetica;fontSize=20;align=center;strokeWidth=2;" vertex="1" parent="1">
          <mxGeometry x="622.5" y="325" width="175" height="80" as="geometry" />
        </mxCell>
        <mxCell id="nW0oDxiYOjyPanPVNNXd-21" value="OS" style="text;html=1;strokeColor=none;fillColor=none;align=center;verticalAlign=middle;whiteSpace=wrap;rounded=0;fontSize=17;fontColor=#FFFFFF;fontStyle=1;rotation=10;" vertex="1" parent="1">
          <mxGeometry x="478" y="395" width="180" height="30" as="geometry" />
        </mxCell>
        <mxCell id="nW0oDxiYOjyPanPVNNXd-22" value="OS" style="text;html=1;strokeColor=none;fillColor=none;align=center;verticalAlign=middle;whiteSpace=wrap;rounded=0;fontSize=17;fontColor=#FFFFFF;fontStyle=1;rotation=10;" vertex="1" parent="1">
          <mxGeometry x="577" y="412.5" width="180" height="30" as="geometry" />
        </mxCell>
        <mxCell id="nW0oDxiYOjyPanPVNNXd-23" value="App" style="text;html=1;strokeColor=none;fillColor=none;align=center;verticalAlign=middle;whiteSpace=wrap;rounded=0;fontSize=17;fontColor=#FFFFFF;fontStyle=1;rotation=10;" vertex="1" parent="1">
          <mxGeometry x="508" y="340" width="120" height="30" as="geometry" />
        </mxCell>
        <mxCell id="nW0oDxiYOjyPanPVNNXd-24" value="App" style="text;html=1;strokeColor=none;fillColor=none;align=center;verticalAlign=middle;whiteSpace=wrap;rounded=0;fontSize=17;fontColor=#FFFFFF;fontStyle=1;rotation=10;" vertex="1" parent="1">
          <mxGeometry x="607" y="357.5" width="120" height="30" as="geometry" />
        </mxCell>
      </root>
    </mxGraphModel>
  </diagram>
</mxfile>
